<svg xmlns="http://www.w3.org/2000/svg" width="64" height="64" viewBox="0 0 64 64">
  <g id="ast-tel" transform="translate(-816 -633)">
    <g id="Icon-Bg" transform="translate(816 633)">
      <g id="Rectangle_14397" data-name="Rectangle 14397" fill="#fef0ea" stroke="#ffe0d1" stroke-width="1">
        <rect width="64" height="64" rx="12" stroke="none"/>
        <rect x="0.5" y="0.5" width="63" height="63" rx="11.5" fill="none"/>
      </g>
    </g>
    <path id="phone-rounded-svgrepo-com" d="M10.038,5.316l.649,1.163a2.832,2.832,0,0,1-.572,3.349h0s-1.119,1.119.91,3.148,3.147.911,3.148.91h0a2.832,2.832,0,0,1,3.349-.572l1.163.649a2.82,2.82,0,0,1,.379,4.5,4.637,4.637,0,0,1-3,1.531,11.173,11.173,0,0,1-8.4-3.661,11.173,11.173,0,0,1-3.661-8.4,4.637,4.637,0,0,1,1.531-3A2.82,2.82,0,0,1,10.038,5.316Z" transform="translate(836.5 653.5)" fill="none" stroke="#f56127" stroke-linecap="round" stroke-width="1.5"/>
  </g>
</svg>
